<svg width="24" height="24" viewBox="0 0 24 24" fill="none" xmlns="http://www.w3.org/2000/svg">
<path d="M2 8.12171C1.99976 6.74699 2.55759 5.42991 3.54797 4.46679C4.53836 3.50368 5.87812 2.97542 7.26582 3.00088C8.91002 2.99223 10.4789 3.68287 11.5742 4.89748C12.6695 3.68287 14.2384 2.99223 15.8826 3.00088C17.2703 2.97542 18.6101 3.50368 19.6005 4.46679C20.5908 5.42991 21.1487 6.74699 21.1484 8.12171C21.1484 13.2008 15.041 17.0357 11.5742 20.0703C8.11505 17.0101 2 13.2046 2 8.12171Z" fill="#FFD700"/>
<g clip-path="url(#clip0_365_65)">
<path d="M2 8.12171C1.99976 6.74699 2.55759 5.42991 3.54797 4.46679C4.53836 3.50368 5.87812 2.97542 7.26582 3.00088C8.91002 2.99223 10.4789 3.68287 11.5742 4.89748C12.6695 3.68287 14.2384 2.99223 15.8826 3.00088C17.2703 2.97542 18.6101 3.50368 19.6005 4.46679C20.5908 5.42991 21.1487 6.74699 21.1484 8.12171C21.1484 13.2008 15.041 17.0357 11.5742 20.0703C8.11505 17.0101 2 13.2046 2 8.12171Z" fill="#0057B7"/>
</g>
<defs>
<clipPath id="clip0_365_65">
<rect width="19.1484" height="8.53516" fill="white" transform="translate(2 3)"/>
</clipPath>
</defs>
</svg>
