<svg width="12" height="12" viewBox="0 0 12 12" fill="none" xmlns="http://www.w3.org/2000/svg">
<path d="M6 0.625C6.20711 0.625 6.375 0.792893 6.375 1V1.5C6.375 1.70711 6.20711 1.875 6 1.875C5.79289 1.875 5.625 1.70711 5.625 1.5V1C5.625 0.792893 5.79289 0.625 6 0.625Z" fill="white"/>
<path fill-rule="evenodd" clip-rule="evenodd" d="M3.125 6C3.125 4.41218 4.41218 3.125 6 3.125C7.58782 3.125 8.875 4.41218 8.875 6C8.875 7.58782 7.58782 8.875 6 8.875C4.41218 8.875 3.125 7.58782 3.125 6ZM6 3.875C4.8264 3.875 3.875 4.8264 3.875 6C3.875 7.1736 4.8264 8.125 6 8.125C7.1736 8.125 8.125 7.1736 8.125 6C8.125 4.8264 7.1736 3.875 6 3.875Z" fill="white"/>
<path d="M2.72964 2.19931C2.58319 2.05287 2.34575 2.05287 2.19931 2.19931C2.05286 2.34576 2.05286 2.5832 2.19931 2.72964L2.55286 3.0832C2.69931 3.22964 2.93674 3.22964 3.08319 3.0832C3.22964 2.93675 3.22964 2.69931 3.08319 2.55287L2.72964 2.19931Z" fill="white"/>
<path d="M11.375 6C11.375 6.20711 11.2071 6.375 11 6.375H10.5C10.2929 6.375 10.125 6.20711 10.125 6C10.125 5.79289 10.2929 5.625 10.5 5.625H11C11.2071 5.625 11.375 5.79289 11.375 6Z" fill="white"/>
<path d="M9.80069 2.72964C9.94713 2.58319 9.94713 2.34575 9.80069 2.19931C9.65424 2.05286 9.4168 2.05286 9.27036 2.19931L8.9168 2.55286C8.77036 2.69931 8.77036 2.93674 8.9168 3.08319C9.06325 3.22964 9.30069 3.22964 9.44713 3.08319L9.80069 2.72964Z" fill="white"/>
<path d="M6 10.125C6.20711 10.125 6.375 10.2929 6.375 10.5V11C6.375 11.2071 6.20711 11.375 6 11.375C5.79289 11.375 5.625 11.2071 5.625 11V10.5C5.625 10.2929 5.79289 10.125 6 10.125Z" fill="white"/>
<path d="M9.44717 8.91681C9.30072 8.77036 9.06328 8.77036 8.91684 8.91681C8.77039 9.06326 8.77039 9.30069 8.91684 9.44714L9.27039 9.80069C9.41684 9.94714 9.65427 9.94714 9.80072 9.80069C9.94717 9.65425 9.94717 9.41681 9.80072 9.27036L9.44717 8.91681Z" fill="white"/>
<path d="M1.875 6C1.875 6.20711 1.70711 6.375 1.5 6.375H1C0.792893 6.375 0.625 6.20711 0.625 6C0.625 5.79289 0.792893 5.625 1 5.625H1.5C1.70711 5.625 1.875 5.79289 1.875 6Z" fill="white"/>
<path d="M3.08316 9.44714C3.2296 9.30069 3.2296 9.06325 3.08316 8.91681C2.93671 8.77036 2.69927 8.77036 2.55283 8.91681L2.19927 9.27036C2.05283 9.41681 2.05283 9.65424 2.19927 9.80069C2.34572 9.94714 2.58316 9.94714 2.7296 9.80069L3.08316 9.44714Z" fill="white"/>
</svg>
