<svg width="12" height="12" viewBox="0 0 12 12" fill="none" xmlns="http://www.w3.org/2000/svg">
<path fill-rule="evenodd" clip-rule="evenodd" d="M5.74314 2.38396C3.86097 2.51572 2.375 4.08433 2.375 6C2.375 8.00203 3.99797 9.625 6 9.625C7.60394 9.625 8.96484 8.58309 9.44241 7.13933C9.07487 7.29118 8.67206 7.375 8.25 7.375C6.52411 7.375 5.125 5.97589 5.125 4.25C5.125 3.55043 5.35506 2.90454 5.74314 2.38396ZM1.625 6C1.625 3.58375 3.58375 1.625 6 1.625C6.22481 1.625 6.44589 1.64199 6.66197 1.67481C6.81146 1.69751 6.93268 1.80777 6.96942 1.95443C7.00616 2.10109 6.95123 2.25548 6.83011 2.34597C6.24962 2.77967 5.875 3.47104 5.875 4.25C5.875 5.56168 6.93832 6.625 8.25 6.625C8.81712 6.625 9.3369 6.4267 9.74527 6.09532C9.86262 6.0001 10.0257 5.98462 10.1588 6.05605C10.292 6.12748 10.3693 6.27187 10.3549 6.4223C10.1422 8.6406 8.27385 10.375 6 10.375C3.58375 10.375 1.625 8.41624 1.625 6Z" fill="#1F1F1F"/>
</svg>
