<svg width="32" height="32" viewBox="0 0 32 32" fill="none" xmlns="http://www.w3.org/2000/svg">
<g id="icon_logo">
<g id="Element" opacity="0.95">
<path id="Element_2" d="M15.5311 2.04274C15.5311 2.04274 23.7308 1.50521 28.2527 9.65956L14.9981 9.93652C14.9981 9.93652 12.493 9.90642 10.4228 12.9879C9.83359 14.2733 9.20498 15.6005 9.99744 18.1697C8.89292 16.3867 4.12952 8.48023 4.12952 8.48023C4.12952 8.48023 7.24884 2.5443 15.5311 2.04274Z" fill="url(#paint0_linear_367_516)"/>
<path id="Element_3" d="M28.1004 22.7317C28.1004 22.7317 24.4679 30.1029 15.1441 29.9392L21.5312 18.3224C21.5312 18.3224 22.8097 16.1682 21.1775 12.8336C20.359 11.6811 19.5247 10.4728 16.9028 9.87375C18.9996 9.80949 28.2275 9.63712 28.2275 9.63712C28.2275 9.63712 31.8079 15.3084 28.1004 22.7317Z" fill="url(#paint1_linear_367_516)"/>
<path id="Element_4" d="M3.90049 23.2931C3.90049 23.2931 -0.667314 16.4588 4.1384 8.46679L11.004 19.8092C11.004 19.8092 12.23 21.9936 15.9337 22.2473C17.3407 22.115 18.8043 21.9955 20.6344 20.026C19.6408 21.8739 15.1743 29.9515 15.1743 29.9515C15.1743 29.9515 8.47398 30.2161 3.90049 23.2931Z" fill="url(#paint2_linear_367_516)"/>
<path id="Element_5" d="M10.7862 16.2062C10.7654 15.2161 11.0386 14.2421 11.5713 13.4073C12.104 12.5725 12.8722 11.9144 13.7789 11.5161C14.6856 11.1179 15.69 10.9975 16.6651 11.17C17.6402 11.3426 18.5423 11.8004 19.2572 12.4856C19.9722 13.1708 20.4679 14.0526 20.6818 15.0195C20.8957 15.9865 20.818 16.9951 20.4587 17.9179C20.0994 18.8407 19.4746 19.6363 18.6632 20.204C17.8518 20.7717 16.8903 21.0861 15.9002 21.1074C15.2426 21.1215 14.5886 21.006 13.9756 20.7673C13.3627 20.5286 12.8027 20.1715 12.3278 19.7163C11.8529 19.2612 11.4723 18.7169 11.2078 18.1146C10.9433 17.5124 10.8 16.8639 10.7862 16.2062Z" stroke="white" stroke-width="0.33"/>
</g>
</g>
<defs>
<linearGradient id="paint0_linear_367_516" x1="-4.5" y1="18" x2="4.49582" y2="-15.7625" gradientUnits="userSpaceOnUse">
<stop stop-color="white"/>
<stop offset="1" stop-color="white" stop-opacity="0"/>
</linearGradient>
<linearGradient id="paint1_linear_367_516" x1="34.8676" y1="39.6248" x2="-10.0558" y2="31.1251" gradientUnits="userSpaceOnUse">
<stop stop-color="white"/>
<stop offset="1" stop-color="white" stop-opacity="0"/>
</linearGradient>
<linearGradient id="paint2_linear_367_516" x1="18.5" y1="44" x2="-9.85747" y2="38.1835" gradientUnits="userSpaceOnUse">
<stop stop-color="white"/>
<stop offset="1" stop-color="white" stop-opacity="0"/>
</linearGradient>
</defs>
</svg>
