<svg width="32" height="32" viewBox="0 0 32 32" fill="none" xmlns="http://www.w3.org/2000/svg">
<g id="icon_logo">
<path id="Vector" d="M7.43882 4C5.66996 4 4.3615 5.5047 4.41991 7.13655C4.4761 8.70398 4.40315 10.7345 3.87695 12.3901C3.34952 14.0509 2.45733 15.1004 1 15.2354V16.7648C2.45733 16.8996 3.34952 17.9494 3.87695 19.6102C4.40315 21.2657 4.47585 23.2963 4.41991 24.8637C4.36125 26.4955 5.66996 28 7.43882 28H25.5636C27.3325 28 28.641 26.4953 28.5826 24.8637C28.5264 23.2963 28.5993 21.2657 29.1253 19.6102C29.6527 17.9496 30.5427 16.8999 32 16.7648V15.2354C30.5427 15.1006 29.6529 14.0509 29.1253 12.3901C28.5993 10.7345 28.5264 8.70398 28.5826 7.13655C28.641 5.5047 27.3325 4 25.5634 4H7.43882ZM21.7617 18.7707C21.7617 21.0177 20.036 22.3799 17.1723 22.3799H11.8926C11.8605 22.3799 11.8298 22.3675 11.8071 22.3455C11.7844 22.3234 11.7716 22.2935 11.7716 22.2623V9.73289C11.7716 9.71743 11.7747 9.70212 11.7808 9.68783C11.7868 9.67354 11.7957 9.66055 11.807 9.64961C11.8182 9.63866 11.8316 9.62998 11.8463 9.62406C11.861 9.61813 11.8767 9.61509 11.8926 9.61509H17.1445C19.5325 9.61509 21.0995 10.8712 21.0995 12.7998C21.0995 14.1534 20.0454 15.365 18.7021 15.5774V15.6482C20.5304 15.8429 21.7617 17.0725 21.7617 18.7707ZM16.6407 11.234H13.8611V15.0465H16.2025C18.012 15.0465 19.01 14.3389 19.01 13.0739C19.01 11.8887 18.152 11.234 16.6407 11.234ZM13.8611 16.5594V20.7612H16.7435C18.6277 20.7612 19.6259 20.0271 19.6259 18.6469C19.6259 17.2669 18.5999 16.5594 16.6222 16.5594H13.8611Z" fill="url(#paint0_linear_367_573)"/>
</g>
<defs>
<linearGradient id="paint0_linear_367_573" x1="41.5217" y1="40.0714" x2="-44.044" y2="8.77131" gradientUnits="userSpaceOnUse">
<stop stop-color="white"/>
<stop offset="1" stop-color="white" stop-opacity="0"/>
</linearGradient>
</defs>
</svg>
