<svg width="32" height="32" viewBox="0 0 32 32" fill="none" xmlns="http://www.w3.org/2000/svg">
<g id="icon_logo">
<path id="Vector" d="M30 5.36489C30 3.50644 28.4936 2 26.6351 2H5.36489C3.50644 2 2 3.50644 2 5.36489V26.6349C2 28.4936 3.50644 30 5.36489 30H26.6351C28.4936 30 30 28.4936 30 26.6349V5.36489ZM14.6667 23.8978C14.6667 24.7438 13.9364 25.3333 13.0904 25.3333H7.014C6.168 25.3333 5.55556 24.7438 5.55556 23.8978V6.94C5.55556 6.09378 6.168 5.33333 7.014 5.33333H13.0904C13.9364 5.33333 14.6667 6.09378 14.6667 6.94V23.8978ZM26.8889 9.12978V16.2156C26.8889 17.0616 26.2364 17.7778 25.3902 17.7778H19.3169C18.4707 17.7778 17.7778 17.0613 17.7778 16.2156V6.85911C17.7778 6.01289 18.4707 5.33333 19.3169 5.33333H25.3902C26.2364 5.33333 26.8889 6.01289 26.8889 6.85911V9.12978Z" fill="url(#paint0_linear_367_492)"/>
</g>
<defs>
<linearGradient id="paint0_linear_367_492" x1="38.6003" y1="44.0833" x2="-42.5204" y2="21.1098" gradientUnits="userSpaceOnUse">
<stop stop-color="white"/>
<stop offset="1" stop-color="white" stop-opacity="0"/>
</linearGradient>
</defs>
</svg>
