<svg width="32" height="32" viewBox="0 0 32 32" fill="none" xmlns="http://www.w3.org/2000/svg">
<g id="icon_logo">
<path id="Vector" d="M2 2L3.45612 17.3066L9.99025 19L16.5424 17.3085L18 2H2ZM14.9713 5.62397L14.8801 6.60333L14.8399 7.05245H7.17508L7.35803 8.96419H14.6577L14.6088 9.43817L14.1383 14.3703L14.1036 14.6803L10 15.7384V15.7387L9.99505 15.7412L5.89419 14.7275L5.61578 11.8318H7.6264L7.76888 13.3228L9.99374 13.8801H10V13.8055L12.2348 13.2764L12.4682 10.8759H5.52627L5.03391 5.67095L4.98603 5.14071H15.0194L14.9713 5.62397Z" fill="url(#paint0_linear_367_557)"/>
<path id="Vector_2" d="M15 13L16.3151 28.2954L22.2162 30L28.1338 28.2892L29.45 13H15ZM26.7179 16.5043L26.2801 21.5997L26.2814 21.6272L26.2796 21.6904V21.6899L25.9686 25.2527L25.9343 25.5692L22.225 26.6321V26.6322L22.2221 26.6348L18.5192 25.566L18.2685 22.6204H20.0843L20.2131 24.1182L22.2255 24.6832L22.225 24.6843V24.684L24.2448 24.111L24.4583 21.6719H20.2359L20.1997 21.2596L20.1171 20.2936L20.0738 19.7749H24.6188L24.7841 17.8779H17.8617L17.8255 17.4659L17.7431 16.4996L17.6997 15.981H26.7612L26.7179 16.5043Z" fill="url(#paint1_linear_367_557)"/>
</g>
<defs>
<linearGradient id="paint0_linear_367_557" x1="22.9144" y1="27.5506" x2="-23.8366" y2="15.0895" gradientUnits="userSpaceOnUse">
<stop stop-color="white"/>
<stop offset="1" stop-color="white" stop-opacity="0"/>
</linearGradient>
<linearGradient id="paint1_linear_367_557" x1="33.8883" y1="38.5506" x2="-8.85642" y2="28.261" gradientUnits="userSpaceOnUse">
<stop stop-color="white"/>
<stop offset="1" stop-color="white" stop-opacity="0"/>
</linearGradient>
</defs>
</svg>
