<svg width="32" height="32" viewBox="0 0 32 32" fill="none" xmlns="http://www.w3.org/2000/svg">
<g id="icon_logo">
<g id="InVision Logomark">
<path id="Element" opacity="0.95" d="M9.77783 1.94283H22.2223C26.5494 1.94283 30.0573 5.45068 30.0573 9.77783V22.2223C30.0573 26.5494 26.5494 30.0573 22.2223 30.0573H9.77783C5.45068 30.0573 1.94283 26.5494 1.94283 22.2223V9.77783C1.94283 5.45068 5.45068 1.94283 9.77783 1.94283Z" stroke="white" stroke-width="0.33"/>
<g id="Element_2">
<path d="M11.4567 10.9314C11.779 10.9267 12.0927 10.8268 12.3584 10.6443C12.6241 10.4618 12.83 10.2049 12.9501 9.90574C13.0702 9.6066 13.0992 9.27863 13.0334 8.96307C12.9676 8.6475 12.8101 8.35842 12.5805 8.13214C12.3509 7.90587 12.0596 7.75251 11.7431 7.69133C11.4266 7.63016 11.0991 7.6639 10.8017 7.78832C10.5044 7.91274 10.2504 8.12229 10.0718 8.39062C9.89315 8.65895 9.79784 8.97409 9.7978 9.29643C9.79854 9.51295 9.84213 9.72718 9.92605 9.92678C10.01 10.1264 10.1326 10.3074 10.2868 10.4594C10.441 10.6113 10.6238 10.7313 10.8245 10.8123C11.0253 10.8933 11.2402 10.9338 11.4567 10.9314Z" fill="url(#paint0_linear_367_545)"/>
<path d="M8.01731 19.6843C7.92312 20.0869 7.87389 20.4986 7.87053 20.912C7.87053 22.3513 8.65105 23.307 10.3099 23.307C11.6855 23.307 12.8017 22.4901 13.6038 21.1703L13.1134 23.1386H15.8441L17.4062 16.8809C17.7965 15.2948 18.552 14.4722 19.6989 14.4722C20.6011 14.4722 21.1621 15.0331 21.1621 15.9604C21.1665 16.2577 21.1254 16.5539 21.0403 16.8388L20.2359 19.7162C20.1208 20.1125 20.0633 20.5233 20.0652 20.9359C20.0652 22.3012 20.8696 23.3025 22.5524 23.3025C23.9917 23.3025 25.1386 22.3763 25.7723 20.1565L24.6994 19.7412C24.1624 21.2294 23.6993 21.498 23.3341 21.498C22.9688 21.498 22.772 21.2545 22.772 20.7664C22.7825 20.5102 22.8234 20.2563 22.8938 20.0097L23.6754 17.2051C23.8509 16.6286 23.9413 16.0295 23.9439 15.4268C23.9439 13.3287 22.6753 12.2342 21.1382 12.2342C19.6989 12.2342 18.2357 13.5324 17.5041 14.8989L18.04 12.4458H13.87L13.2841 14.6076H15.2365L14.035 19.4136C13.0907 21.5116 11.3567 21.5457 11.1394 21.4968C10.7821 21.416 10.5546 21.2806 10.5546 20.8142C10.565 20.4365 10.6223 20.0615 10.7252 19.698L12.5548 12.4401H7.92173L7.33691 14.6019H9.26317L8.01731 19.6843Z" fill="url(#paint1_linear_367_545)"/>
</g>
</g>
</g>
<defs>
<linearGradient id="paint0_linear_367_545" x1="31.4348" y1="31.1763" x2="-20.4784" y2="13.8526" gradientUnits="userSpaceOnUse">
<stop stop-color="white"/>
<stop offset="1" stop-color="white" stop-opacity="0"/>
</linearGradient>
<linearGradient id="paint1_linear_367_545" x1="31.4348" y1="31.1763" x2="-20.4784" y2="13.8526" gradientUnits="userSpaceOnUse">
<stop stop-color="white"/>
<stop offset="1" stop-color="white" stop-opacity="0"/>
</linearGradient>
</defs>
</svg>
