<svg width="32" height="32" viewBox="0 0 32 32" fill="none" xmlns="http://www.w3.org/2000/svg">
<g id="icon_logo">
<g id="Group">
<path id="Vector" fill-rule="evenodd" clip-rule="evenodd" d="M16.213 2C8.3644 2 2 8.36299 2 16.213C2 22.4929 6.07245 27.8203 11.7197 29.6999C12.4298 29.8317 12.6906 29.3916 12.6906 29.0162C12.6906 28.6772 12.6774 27.5576 12.6713 26.37C8.71721 27.2298 7.88285 24.6931 7.88285 24.6931C7.23632 23.0502 6.30476 22.6134 6.30476 22.6134C5.01498 21.7313 6.40196 21.7496 6.40196 21.7496C7.82895 21.8497 8.5807 23.2143 8.5807 23.2143C9.84835 25.3867 11.9056 24.7587 12.7167 24.3958C12.8443 23.4772 13.2126 22.8499 13.6191 22.495C10.4622 22.1361 7.14335 20.9172 7.14335 15.4711C7.14335 13.9194 7.6988 12.6515 8.608 11.6559C8.46019 11.2982 7.9737 9.85259 8.74545 7.89486C8.74545 7.89486 9.93873 7.51286 12.6548 9.35174C13.7888 9.03659 15.0049 8.87819 16.213 8.87278C17.4204 8.87819 18.6372 9.03612 19.7733 9.35127C22.4861 7.51239 23.6779 7.89438 23.6779 7.89438C24.4516 9.85188 23.9651 11.2977 23.8175 11.6555C24.7288 12.651 25.2803 13.9189 25.2803 15.4707C25.2803 20.9296 21.9553 22.1314 18.7904 22.4835C19.3005 22.9245 19.7547 23.7897 19.7547 25.1155C19.7547 27.0172 19.7382 28.5478 19.7382 29.0159C19.7382 29.3942 19.9943 29.8373 20.7145 29.6978C26.3585 27.8163 30.4262 22.4905 30.4262 16.213C30.426 8.36346 24.0623 2.00024 16.213 2.00024V2Z" fill="url(#paint0_linear_367_569)"/>
<path id="Vector_2" d="M7.38334 22.4066C7.35204 22.4772 7.24095 22.4984 7.13974 22.4502C7.03618 22.404 6.97852 22.3078 7.01194 22.2369C7.04254 22.164 7.15386 22.1439 7.25671 22.1927C7.36027 22.239 7.41911 22.3362 7.3831 22.4068L7.38334 22.4066ZM7.95903 23.0489C7.89148 23.1118 7.75898 23.0826 7.66907 22.983C7.57586 22.8842 7.55845 22.7516 7.62741 22.6879C7.69755 22.6253 7.82605 22.6549 7.91926 22.7538C8.01199 22.854 8.03035 22.9854 7.95927 23.0491L7.95903 23.0489ZM8.51966 23.8673C8.43258 23.928 8.28995 23.8713 8.20192 23.7449C8.11484 23.6182 8.11484 23.4664 8.20428 23.406C8.29207 23.3452 8.43258 23.4001 8.52202 23.5253C8.60863 23.6536 8.60863 23.8054 8.51966 23.867V23.8673ZM9.28718 24.6583C9.20951 24.7442 9.04334 24.7212 8.92189 24.6042C8.79786 24.4896 8.76326 24.3265 8.84117 24.2408C8.92025 24.1546 9.08712 24.1786 9.20927 24.2949C9.33331 24.4093 9.37073 24.5726 9.28765 24.6581L9.28718 24.6583ZM10.3463 25.1175C10.3117 25.2288 10.1521 25.2794 9.99091 25.2319C9.83015 25.1832 9.72495 25.053 9.7579 24.9405C9.79085 24.8282 9.9516 24.7758 10.1138 24.8264C10.2745 24.8748 10.3797 25.0043 10.3463 25.1175ZM11.5097 25.2025C11.5137 25.3197 11.3772 25.4166 11.2084 25.419C11.0383 25.423 10.9006 25.3279 10.8989 25.2126C10.8989 25.0942 11.0326 24.9984 11.2025 24.9951C11.3713 24.9921 11.5099 25.0862 11.5099 25.2022L11.5097 25.2025ZM12.5919 25.0184C12.6121 25.1326 12.4947 25.25 12.3269 25.2813C12.1621 25.3119 12.0091 25.2408 11.9879 25.1276C11.9677 25.0104 12.0873 24.893 12.252 24.8626C12.4201 24.8337 12.5707 24.9026 12.5919 25.0186V25.0184Z" fill="#181616"/>
</g>
</g>
<defs>
<linearGradient id="paint0_linear_367_569" x1="39.1574" y1="43.6686" x2="-42.8857" y2="19.8455" gradientUnits="userSpaceOnUse">
<stop stop-color="white"/>
<stop offset="1" stop-color="white" stop-opacity="0"/>
</linearGradient>
</defs>
</svg>
