<svg width="32" height="32" viewBox="0 0 32 32" fill="none" xmlns="http://www.w3.org/2000/svg">
<g id="icon_logo">
<g id="Miro Logomark">
<path id="Element" opacity="0.95" d="M3.91117 1.94283H28.0889C29.176 1.94283 30.0573 2.82408 30.0573 3.91117V28.0889C30.0573 29.176 29.176 30.0573 28.0889 30.0573H3.91117C2.82408 30.0573 1.94283 29.176 1.94283 28.0889V3.91117C1.94283 2.82408 2.82408 1.94283 3.91117 1.94283Z" stroke="white" stroke-width="0.33"/>
<path id="Logo" fill-rule="evenodd" clip-rule="evenodd" d="M21.1165 5.33496H17.994L20.597 9.90614L14.8731 5.33496H11.7505L14.6133 10.9229L8.62966 5.33496H5.50708L8.62966 12.4455L5.50708 26.6683H8.62966L14.6133 11.4304L11.7505 26.6683H14.8731L20.597 10.4137L17.994 26.6683H21.1165L26.8404 8.89109L21.1165 5.33496Z" fill="url(#paint0_linear_367_486)"/>
</g>
</g>
<defs>
<linearGradient id="paint0_linear_367_486" x1="33.393" y1="37.3985" x2="-28.4132" y2="19.8948" gradientUnits="userSpaceOnUse">
<stop stop-color="white"/>
<stop offset="1" stop-color="white" stop-opacity="0"/>
</linearGradient>
</defs>
</svg>
