<svg width="32" height="32" viewBox="0 0 32 32" fill="none" xmlns="http://www.w3.org/2000/svg">
<path d="M15.9841 19.0342C17.3906 19.0342 18.5308 17.894 18.5308 16.4876C18.5308 15.0811 17.3906 13.9409 15.9841 13.9409C14.5777 13.9409 13.4375 15.0811 13.4375 16.4876C13.4375 17.894 14.5777 19.0342 15.9841 19.0342Z" fill="url(#paint0_linear_786_107)"/>
<path d="M25.6572 12.2877C25.1657 12.109 24.6519 11.9303 24.1158 11.7739C24.2498 11.2378 24.3615 10.7017 24.4508 10.1879C24.92 7.23914 24.4062 5.16162 22.9765 4.35742C22.552 4.11169 22.0829 4 21.5468 4C19.9831 4 17.9949 5.16162 15.9844 7.10511C13.9739 5.16162 11.9857 4 10.422 4C9.88588 4 9.41676 4.11169 8.99232 4.35742C7.56263 5.18396 7.04884 7.26148 7.51796 10.1879C7.60731 10.7017 7.71901 11.2378 7.85304 11.7739C7.3169 11.9303 6.80311 12.0867 6.31165 12.2877C3.51929 13.36 2.00024 14.8344 2.00024 16.4875C2.00024 18.1405 3.54163 19.6149 6.31165 20.6872C6.80311 20.8659 7.3169 21.0446 7.85304 21.201C7.71901 21.7371 7.60731 22.2732 7.51796 22.787C7.04884 25.7358 7.56263 27.8133 8.99232 28.6175C9.41676 28.8632 9.88588 28.9749 10.422 28.9749C12.0081 28.9749 13.9962 27.8133 15.9844 25.8698C17.9949 27.8133 19.9831 28.9749 21.5468 28.9749C22.0829 28.9749 22.552 28.8632 22.9765 28.6175C24.4062 27.7909 24.92 25.7134 24.4508 22.787C24.3615 22.2732 24.2498 21.7371 24.1158 21.201C24.6519 21.0446 25.1657 20.8882 25.6572 20.6872C28.4495 19.6149 29.9686 18.1405 29.9686 16.4875C29.9686 14.8344 28.4495 13.36 25.6572 12.2877V12.2877ZM22.351 5.47437C23.2669 6.0105 23.5796 7.66358 23.1999 10.0092C23.1329 10.4783 23.0212 10.9697 22.8871 11.4835C21.7255 11.2155 20.4969 11.0368 19.2012 10.9251C18.4417 9.85279 17.6598 8.89222 16.878 8.021C18.531 6.39026 20.2065 5.27332 21.5691 5.27332C21.8595 5.27332 22.1276 5.34033 22.351 5.47437V5.47437ZM19.849 18.7213C19.4469 19.4362 18.9778 20.151 18.4864 20.8659C17.6598 20.9329 16.8333 20.9552 15.9844 20.9552C15.1132 20.9552 14.2866 20.9329 13.4824 20.8659C12.991 20.151 12.5442 19.4362 12.1421 18.7213C11.7177 17.9842 11.3156 17.2246 10.9581 16.4875C11.3156 15.7503 11.7177 14.9907 12.1421 14.2536C12.5442 13.5387 13.0133 12.8239 13.5048 12.109C14.3313 12.042 15.1579 12.0197 16.0067 12.0197C16.878 12.0197 17.7045 12.042 18.5087 12.109C19.0002 12.8239 19.4469 13.5387 19.849 14.2536C20.2735 14.9907 20.6756 15.7503 21.033 16.4875C20.6532 17.2246 20.2735 17.9618 19.849 18.7213ZM21.7032 17.9842C22.0382 18.766 22.3063 19.5255 22.552 20.2851C21.7925 20.4638 20.9883 20.5978 20.1394 20.7095C20.4075 20.2851 20.6979 19.8383 20.9436 19.3692C21.2117 18.9001 21.4574 18.4309 21.7032 17.9842ZM15.9844 24.038C15.4483 23.4572 14.9345 22.8317 14.443 22.1839C14.9568 22.2062 15.4706 22.2286 15.9844 22.2286C16.4982 22.2286 17.012 22.2062 17.5258 22.1839C17.0343 22.8317 16.5205 23.4572 15.9844 24.038ZM11.8294 20.6872C10.9805 20.5755 10.1763 20.4414 9.41676 20.2627C9.66249 19.5255 9.93056 18.7437 10.2656 17.9618C10.5114 18.4086 10.7571 18.8777 11.0252 19.3245C11.2932 19.8159 11.5613 20.2404 11.8294 20.6872V20.6872ZM10.2656 14.9907C9.93056 14.2089 9.66249 13.4494 9.41676 12.6898C10.1763 12.5111 10.9805 12.3771 11.8294 12.2654C11.5613 12.6898 11.2709 13.1366 11.0252 13.6057C10.7571 14.0748 10.5114 14.544 10.2656 14.9907V14.9907ZM15.9844 8.9369C16.5205 9.51771 17.0343 10.1432 17.5258 10.791C17.012 10.7687 16.4982 10.7464 15.9844 10.7464C15.4706 10.7464 14.9568 10.7687 14.443 10.791C14.9345 10.1432 15.4483 9.51771 15.9844 8.9369ZM20.9436 13.6281L20.1394 12.2877C20.9883 12.3994 21.7925 12.5335 22.552 12.7122C22.3063 13.4494 22.0382 14.2312 21.7032 15.0131C21.4574 14.544 21.2117 14.0748 20.9436 13.6281ZM8.76893 10.0092C8.38917 7.66358 8.70192 6.0105 9.61781 5.47437C9.8412 5.34033 10.1093 5.27332 10.3997 5.27332C11.74 5.27332 13.4154 6.36792 15.0908 8.021C14.309 8.86988 13.5271 9.85279 12.7676 10.9251C11.4719 11.0368 10.2433 11.2378 9.08168 11.4835C8.94765 10.9697 8.85829 10.4783 8.76893 10.0092V10.0092ZM3.25122 16.4875C3.25122 15.4375 4.52454 14.3206 6.75843 13.494C7.20521 13.3153 7.69667 13.159 8.18812 13.0249C8.54555 14.1419 8.99232 15.3258 9.52846 16.5098C8.99232 17.6938 8.52321 18.8554 8.18812 19.9723C5.10535 19.0788 3.25122 17.7384 3.25122 16.4875ZM9.61781 27.5005C8.70192 26.9644 8.38917 25.3113 8.76893 22.9657C8.83595 22.4966 8.94765 22.0052 9.08168 21.4914C10.2433 21.7594 11.4719 21.9381 12.7676 22.0498C13.5271 23.1221 14.309 24.0827 15.0908 24.9539C13.4378 26.5846 11.7623 27.7016 10.3997 27.7016C10.1093 27.7016 9.8412 27.6346 9.61781 27.5005ZM23.1999 22.9657C23.5796 25.3113 23.2669 26.9644 22.351 27.5005C22.1276 27.6346 21.8595 27.7016 21.5691 27.7016C20.2288 27.7016 18.5534 26.607 16.878 24.9539C17.6598 24.105 18.4417 23.1221 19.2012 22.0498C20.4969 21.9381 21.7255 21.7371 22.8871 21.4914C23.0212 22.0052 23.1105 22.4966 23.1999 22.9657V22.9657ZM25.2104 19.4809C24.7636 19.6596 24.2721 19.8159 23.7807 19.95C23.4233 18.833 22.9765 17.6491 22.4403 16.4651C22.9765 15.2812 23.4456 14.1195 23.7807 13.0026C26.8635 13.8961 28.7176 15.2365 28.7176 16.4875C28.7176 17.5374 27.4219 18.6543 25.2104 19.4809Z" fill="url(#paint1_linear_786_107)"/>
<defs>
<linearGradient id="paint0_linear_786_107" x1="20.0952" y1="21.596" x2="5.33912" y2="17.417" gradientUnits="userSpaceOnUse">
<stop stop-color="white"/>
<stop offset="1" stop-color="white" stop-opacity="0"/>
</linearGradient>
<linearGradient id="paint1_linear_786_107" x1="38.5591" y1="41.5367" x2="-40.9695" y2="16.3146" gradientUnits="userSpaceOnUse">
<stop stop-color="white"/>
<stop offset="1" stop-color="white" stop-opacity="0"/>
</linearGradient>
</defs>
</svg>
