<svg width="32" height="32" viewBox="0 0 32 32" fill="none" xmlns="http://www.w3.org/2000/svg">
<g id="icon_logo">
<path id="Vector" d="M2.25 2.25H29.75V29.75H2.25V2.25Z" stroke="white" stroke-width="0.5"/>
<path id="Vector_2" d="M26.926 22.9014C26.7256 21.7304 25.9118 20.7469 23.5015 19.8298C22.6641 19.4688 21.7306 19.2102 21.4525 18.6148C21.3537 18.2683 21.3406 18.0731 21.4031 17.8634C21.5825 17.1827 22.4485 16.9705 23.1348 17.1657C23.5768 17.3047 23.9953 17.6243 24.2477 18.1342C25.4281 17.417 25.4257 17.4217 26.2499 16.9288C25.9481 16.4899 25.7871 16.2873 25.5895 16.0995C24.8796 15.3554 23.9123 14.9722 22.3652 15.0016L21.5593 15.0994C20.7871 15.2825 20.0512 15.6628 19.6196 16.1727C18.3247 17.5513 18.694 19.9641 20.2697 20.9571C21.822 22.0503 24.1024 22.299 24.3936 23.3213C24.677 24.5728 23.4134 24.9779 22.1574 24.834C21.2318 24.6533 20.717 24.2119 20.1604 23.4092C19.136 23.9655 19.136 23.9655 18.0828 24.5338C18.3326 25.0462 18.595 25.2781 19.0137 25.722C20.9951 27.6078 25.9536 27.5151 26.8429 24.6607C26.879 24.5627 27.1185 23.9091 26.926 22.9014ZM16.6811 15.1527H14.1225L14.1121 21.3593C14.1121 22.6793 14.1848 23.8894 13.956 24.2603C13.5817 24.9898 12.6118 24.8994 12.1697 24.7579C11.7198 24.5504 11.491 24.2554 11.226 23.8383C11.1532 23.7186 11.0986 23.6259 11.0802 23.6188L9 24.8141C9.3459 25.4802 9.85547 26.0584 10.5082 26.434C11.4832 26.9831 12.7936 27.1514 14.1641 26.8562C15.056 26.6124 15.8256 26.1074 16.2285 25.3388C16.8111 24.331 16.6861 23.1113 16.6809 21.7622C16.694 19.5612 16.6811 17.3606 16.6811 15.1527Z" fill="url(#paint0_linear_367_560)"/>
</g>
<defs>
<linearGradient id="paint0_linear_367_560" x1="32.5287" y1="33.0357" x2="-15.1914" y2="12.7641" gradientUnits="userSpaceOnUse">
<stop stop-color="white"/>
<stop offset="1" stop-color="white" stop-opacity="0"/>
</linearGradient>
</defs>
</svg>
