<svg width="32" height="32" viewBox="0 0 32 32" fill="none" xmlns="http://www.w3.org/2000/svg">
<g id="icon_logo">
<path id="Vector" d="M14.75 25.5C14.75 27.8526 12.8526 29.75 10.5 29.75C8.14737 29.75 6.25 27.8526 6.25 25.5C6.25 23.1474 8.14737 21.25 10.5 21.25H14.75V25.5Z" stroke="white" stroke-width="0.5"/>
<path id="Vector_2" d="M6.25 16C6.25 13.3452 8.1715 11.25 10.5 11.25H14.75V20.75H10.5C8.1715 20.75 6.25 18.6548 6.25 16Z" stroke="white" stroke-width="0.5"/>
<path id="Vector_3" d="M6.25 6.5C6.25 4.14737 8.14737 2.25 10.5 2.25H14.75V10.75H10.5C8.14737 10.75 6.25 8.85263 6.25 6.5Z" stroke="white" stroke-width="0.5"/>
<path id="Vector_4" d="M15.25 2.25H20C22.6548 2.25 24.75 4.1715 24.75 6.5C24.75 8.8285 22.6548 10.75 20 10.75H15.25V2.25Z" stroke="white" stroke-width="0.5"/>
<path id="Vector_5" d="M24.75 16C24.75 18.6294 22.6294 20.75 20 20.75C17.3706 20.75 15.25 18.6294 15.25 16C15.25 13.3706 17.3706 11.25 20 11.25C22.6294 11.25 24.75 13.3706 24.75 16Z" stroke="white" stroke-width="0.5"/>
</g>
</svg>
