<svg width="32" height="32" viewBox="0 0 32 32" fill="none" xmlns="http://www.w3.org/2000/svg">
<g id="icon_logo">
<g id="Illustrator">
<path id="Element" opacity="0.95" d="M6.81487 2.29997H25.1852C27.8751 2.29997 30.0556 4.48062 30.0556 7.17061V24.8308C30.0556 27.5208 27.8751 29.7015 25.1852 29.7015H6.81487C4.12505 29.7015 1.9445 27.5208 1.9445 24.8308V7.17061C1.9445 4.48062 4.12505 2.29997 6.81487 2.29997Z" stroke="white" stroke-width="0.333342"/>
<g id="Element_2">
<path d="M15.5609 18.7785H11.1531L10.2563 21.5646C10.2441 21.6154 10.2145 21.6603 10.1727 21.6917C10.1309 21.723 10.0795 21.7388 10.0273 21.7363H7.79479C7.66747 21.7363 7.62295 21.6663 7.66122 21.5264L11.4775 10.5349C11.5157 10.4204 11.5539 10.29 11.592 10.1437C11.6419 9.88907 11.6675 9.6303 11.6683 9.37085C11.6657 9.35271 11.6674 9.33421 11.6732 9.31682C11.679 9.29943 11.6888 9.28363 11.7017 9.27067C11.7147 9.25771 11.7305 9.24794 11.7479 9.24214C11.7653 9.23634 11.7838 9.23467 11.8019 9.23725H14.8358C14.9247 9.23725 14.9756 9.26906 14.9885 9.33269L19.32 21.5455C19.3582 21.6728 19.32 21.7364 19.2055 21.7363H16.7249C16.6823 21.741 16.6394 21.7301 16.6043 21.7055C16.5692 21.6809 16.5442 21.6444 16.5341 21.6027L15.5609 18.7785ZM11.84 16.3741H14.8549C14.7786 16.1198 14.6895 15.8336 14.5878 15.5154C14.4858 15.1976 14.3777 14.8573 14.2634 14.4945C14.1489 14.1319 14.0344 13.7694 13.9199 13.4068C13.8054 13.0442 13.7005 12.6944 13.6051 12.3572C13.5097 12.0203 13.4238 11.7118 13.3475 11.4318H13.3284C13.221 11.9471 13.0873 12.4567 12.9277 12.9583C12.7494 13.5308 12.5681 14.116 12.3839 14.7139C12.1993 15.3121 12.018 15.8655 11.84 16.3741Z" fill="url(#paint0_linear_367_541)"/>
<path d="M21.8991 11.2601C21.7045 11.2679 21.5104 11.2345 21.3296 11.1622C21.1487 11.0898 20.9852 10.9801 20.8496 10.8403C20.7145 10.6943 20.6095 10.5231 20.5407 10.3364C20.4719 10.1497 20.4407 9.95132 20.4489 9.75255C20.442 9.55575 20.4766 9.3597 20.5506 9.17721C20.6246 8.99472 20.7362 8.82988 20.8782 8.69347C21.0189 8.55847 21.1849 8.4527 21.3667 8.38228C21.5484 8.31186 21.7424 8.27818 21.9373 8.2832C22.3952 8.2832 22.7546 8.41996 23.0154 8.69347C23.147 8.83561 23.2493 9.00232 23.3164 9.18405C23.3835 9.36578 23.4142 9.55897 23.4065 9.75255C23.4145 9.9521 23.3823 10.1512 23.3118 10.3381C23.2414 10.5249 23.134 10.6957 22.9963 10.8403C22.8523 10.9822 22.6805 11.0928 22.4916 11.165C22.3028 11.2373 22.1011 11.2696 21.8991 11.2601ZM20.5825 21.5455V12.4241C20.5825 12.3096 20.6331 12.2523 20.7351 12.2523H23.0822C23.1838 12.2523 23.2347 12.3096 23.2348 12.4241V21.5455C23.2348 21.6728 23.1839 21.7365 23.0822 21.7364H20.7542C20.6397 21.7364 20.5825 21.6727 20.5825 21.5455Z" fill="url(#paint1_linear_367_541)"/>
</g>
</g>
</g>
<defs>
<linearGradient id="paint0_linear_367_541" x1="28.2484" y1="28.5048" x2="-16.1831" y2="13.7659" gradientUnits="userSpaceOnUse">
<stop stop-color="white"/>
<stop offset="1" stop-color="white" stop-opacity="0"/>
</linearGradient>
<linearGradient id="paint1_linear_367_541" x1="28.2484" y1="28.5048" x2="-16.1831" y2="13.7659" gradientUnits="userSpaceOnUse">
<stop stop-color="white"/>
<stop offset="1" stop-color="white" stop-opacity="0"/>
</linearGradient>
</defs>
</svg>
