<svg width="32" height="32" viewBox="0 0 32 32" fill="none" xmlns="http://www.w3.org/2000/svg">
<g id="icon_logo">
<g id="Group 7">
<path id="Vector" d="M29.6 16C29.6 23.5111 23.5111 29.6 16 29.6C8.48893 29.6 2.4 23.5111 2.4 16C2.4 8.48893 8.48893 2.4 16 2.4C23.5111 2.4 29.6 8.48893 29.6 16Z" stroke="url(#paint0_linear_367_502)" stroke-width="0.8"/>
<path id="Vector_2" d="M6.59971 6.6002H25.3997V25.4002H6.59971V6.6002Z" stroke="url(#paint1_linear_367_502)" stroke-width="0.8"/>
<g id="Vector_3">
<mask id="path-3-inside-1_367_502" fill="white">
<path fill-rule="evenodd" clip-rule="evenodd" d="M25.7498 6.24902L15.9998 25.749L6.24976 6.24902"/>
</mask>
<path d="M15.9998 25.749L15.2842 26.1068L15.9998 27.5379L16.7153 26.1068L15.9998 25.749ZM25.0342 5.89125L15.2842 25.3913L16.7153 26.1068L26.4653 6.60679L25.0342 5.89125ZM16.7153 25.3913L6.9653 5.89125L5.53421 6.60679L15.2842 26.1068L16.7153 25.3913Z" fill="url(#paint2_linear_367_502)" mask="url(#path-3-inside-1_367_502)"/>
</g>
</g>
</g>
<defs>
<linearGradient id="paint0_linear_367_502" x1="38.6003" y1="44.0833" x2="-42.5204" y2="21.1098" gradientUnits="userSpaceOnUse">
<stop stop-color="white"/>
<stop offset="1" stop-color="white" stop-opacity="0"/>
</linearGradient>
<linearGradient id="paint1_linear_367_502" x1="31.8199" y1="35.6585" x2="-24.9646" y2="19.5771" gradientUnits="userSpaceOnUse">
<stop stop-color="white"/>
<stop offset="1" stop-color="white" stop-opacity="0"/>
</linearGradient>
<linearGradient id="paint2_linear_367_502" x1="31.7392" y1="35.5571" x2="-24.7555" y2="19.5577" gradientUnits="userSpaceOnUse">
<stop stop-color="white"/>
<stop offset="1" stop-color="white" stop-opacity="0"/>
</linearGradient>
</defs>
</svg>
