<svg width="32" height="32" viewBox="0 0 32 32" fill="none" xmlns="http://www.w3.org/2000/svg">
<g id="icon_logo">
<path id="Icon" d="M20.6178 5.40545L20.6182 5.40493C21.4629 4.37284 22.0652 2.95875 22.0652 1.51238C22.0652 1.31302 22.0513 1.10393 22.0197 0.928942L21.9579 0.586308L21.61 0.600324C20.1818 0.657865 18.5175 1.53217 17.5273 2.70961C16.7389 3.60309 16.0087 5.03158 16.0087 6.49166C16.0087 6.74137 16.054 6.96932 16.0681 7.04014L16.0685 7.04254L16.1223 7.31339L16.3946 7.35911C16.402 7.36035 16.4108 7.3619 16.4209 7.36368C16.498 7.37729 16.6495 7.40404 16.813 7.40404C17.4775 7.40404 18.1979 7.18085 18.8566 6.82991C19.5181 6.47743 20.1444 5.98198 20.6178 5.40545ZM26.5759 10.1873L26.8819 9.95611L26.6638 9.64065C24.81 6.95916 21.9791 6.87994 21.2217 6.87994C20.1713 6.87994 19.2291 7.20299 18.4533 7.50495C18.322 7.55603 18.1977 7.60563 18.0788 7.65307C17.8362 7.74986 17.6161 7.83768 17.4055 7.91084C17.0924 8.01962 16.8543 8.07549 16.6696 8.07549C16.4631 8.07549 16.2203 8.02148 15.9248 7.92193C15.6957 7.84477 15.4572 7.74843 15.1946 7.64234C15.1168 7.61088 15.0368 7.57856 14.9543 7.54563C14.2521 7.26538 13.4137 6.95877 12.4826 6.95877C9.0156 6.95877 5.6 9.84316 5.6 15.0839C5.6 18.3247 6.82857 21.7278 8.37237 23.9319L8.37308 23.9329C9.00856 24.8342 9.6313 25.6932 10.309 26.3239C10.9941 26.9614 11.7716 27.4 12.7174 27.4C13.5538 27.4 14.1766 27.1323 14.755 26.8837C14.7925 26.8676 14.8298 26.8516 14.8669 26.8358C15.4756 26.5757 16.0869 26.3358 16.9957 26.3358C17.9159 26.3358 18.4708 26.5683 19.0395 26.8205C19.0612 26.8301 19.083 26.8398 19.1048 26.8495C19.6718 27.1014 20.2846 27.3737 21.2217 27.3737C22.2323 27.3737 23.0523 26.9027 23.7427 26.2598C24.4264 25.6232 25.0172 24.7856 25.5672 23.9969L25.5673 23.9969L25.5712 23.991C26.2023 23.0511 26.6509 22.1267 26.9436 21.426C27.0901 21.0752 27.1981 20.7789 27.2709 20.5627C27.3073 20.4547 27.3351 20.3658 27.3546 20.2993C27.3697 20.2479 27.3894 20.1791 27.396 20.1325L27.4466 19.7763L27.1144 19.6926C27.1105 19.6911 27.1048 19.6888 27.097 19.6856C27.0734 19.6758 27.0381 19.6605 26.9927 19.639C26.9019 19.5962 26.7738 19.5309 26.621 19.4408C26.3151 19.2605 25.9151 18.9841 25.5188 18.5964C24.7305 17.8253 23.9565 16.616 23.9565 14.8211C23.9565 11.9316 26.0564 10.5342 26.5046 10.236C26.5381 10.2136 26.5624 10.1975 26.5759 10.1873Z" stroke="url(#paint0_linear_367_507)" stroke-width="0.8"/>
</g>
<defs>
<linearGradient id="paint0_linear_367_507" x1="33.4502" y1="40.0774" x2="-29.0023" y2="25.792" gradientUnits="userSpaceOnUse">
<stop stop-color="white"/>
<stop offset="1" stop-color="white" stop-opacity="0"/>
</linearGradient>
</defs>
</svg>
