<svg width="32" height="32" viewBox="0 0 32 32" fill="none" xmlns="http://www.w3.org/2000/svg">
<g id="icon_logo">
<path id="Vector" d="M7.88198 19.6935C7.88198 21.313 6.56151 22.6356 4.94209 22.6356C3.32268 22.6354 2 21.313 2 19.6935C2 18.0741 3.32268 16.7514 4.94209 16.7514H7.88198V19.6935ZM9.36459 19.6935C9.36459 18.0741 10.687 16.7514 12.3065 16.7514C13.9259 16.7514 15.2486 18.0741 15.2486 19.6935V27.0581C15.2486 28.6773 13.9259 30 12.3065 30C10.687 30 9.36437 28.6773 9.36437 27.0579V19.6933L9.36459 19.6935ZM12.3065 7.88198C10.687 7.88198 9.36437 6.56151 9.36437 4.94209C9.36459 3.32268 10.687 2 12.3065 2C13.9259 2 15.2486 3.32268 15.2486 4.94209V7.88198H12.3065ZM12.3065 9.36459C13.9259 9.36459 15.2486 10.687 15.2486 12.3065C15.2486 13.9259 13.9259 15.2486 12.3065 15.2486H4.94187C3.3229 15.2486 2 13.9259 2 12.3065C2 10.687 3.32268 9.36437 4.94209 9.36437H12.3067L12.3065 9.36459ZM24.118 12.3065C24.118 10.687 25.4385 9.36437 27.0579 9.36437C28.6773 9.36437 30 10.687 30 12.3065C30 13.9259 28.6773 15.2486 27.0579 15.2486H24.118V12.3065ZM22.6354 12.3065C22.6354 13.9259 21.313 15.2486 19.6935 15.2486C18.0741 15.2486 16.7514 13.9259 16.7514 12.3065V4.94187C16.7514 3.3229 18.0741 2 19.6935 2C21.313 2 22.6356 3.32268 22.6356 4.94209L22.6354 12.3065ZM19.6935 24.118C21.313 24.118 22.6356 25.4385 22.6356 27.0579C22.6356 28.6773 21.313 30 19.6935 30C18.0741 30 16.7514 28.6773 16.7514 27.0579V24.118H19.6935ZM19.6935 22.6354C18.0741 22.6354 16.7514 21.313 16.7514 19.6935C16.7514 18.0741 18.0741 16.7514 19.6935 16.7514H27.0581C28.6773 16.7514 30 18.0741 30 19.6935C30 21.313 28.6773 22.6356 27.0579 22.6356L19.6935 22.6354Z" fill="url(#paint0_linear_367_490)"/>
</g>
<defs>
<linearGradient id="paint0_linear_367_490" x1="38.6003" y1="44.0833" x2="-42.5204" y2="21.1098" gradientUnits="userSpaceOnUse">
<stop stop-color="white"/>
<stop offset="1" stop-color="white" stop-opacity="0"/>
</linearGradient>
</defs>
</svg>
