<svg width="32" height="32" viewBox="0 0 32 32" fill="none" xmlns="http://www.w3.org/2000/svg">
<g id="icon_logo">
<g id="Photoshop">
<path id="Element" opacity="0.95" d="M6.81487 2.29997H25.1852C27.8751 2.29997 30.0556 4.48062 30.0556 7.17061V24.8308C30.0556 27.5208 27.8751 29.7015 25.1852 29.7015H6.81487C4.12505 29.7015 1.9445 27.5208 1.9445 24.8308V7.17061C1.9445 4.48062 4.12505 2.29997 6.81487 2.29997Z" stroke="white" stroke-width="0.333342"/>
<g id="Element_2">
<path d="M8.18188 21.5823V9.3886C8.18188 9.29973 8.22008 9.25502 8.29641 9.25502C8.49971 9.25502 8.68534 9.25204 8.96531 9.24547C9.245 9.23922 9.54712 9.23286 9.87168 9.2264C10.1961 9.22012 10.5396 9.21376 10.9021 9.2073C11.2646 9.20105 11.624 9.19787 11.9802 9.19775C12.9468 9.19775 13.7609 9.31861 14.4226 9.56033C15.0195 9.76224 15.5638 10.0947 16.016 10.5335C16.3992 10.9139 16.6954 11.3729 16.8841 11.8789C17.0626 12.3713 17.1531 12.8912 17.1513 13.415C17.1513 14.4329 16.916 15.2726 16.4453 15.9339C15.9715 16.5979 15.3055 17.1008 14.5371 17.3746C13.7357 17.6737 12.8451 17.7751 11.8657 17.7751C11.5858 17.7751 11.3886 17.7719 11.2742 17.7656C11.1597 17.7593 10.988 17.7561 10.759 17.756V21.5632C10.7623 21.5866 10.7602 21.6104 10.7527 21.6327C10.7453 21.6551 10.7327 21.6754 10.7161 21.692C10.6994 21.7087 10.6791 21.7213 10.6567 21.7287C10.6344 21.7362 10.6106 21.7383 10.5873 21.735H8.31545C8.22633 21.735 8.18188 21.6843 8.18188 21.5823ZM10.759 11.5449V15.522C10.9242 15.5348 11.0768 15.5412 11.2169 15.5411H11.8466C12.3099 15.5395 12.7702 15.4661 13.211 15.3233C13.589 15.211 13.9268 14.9924 14.1841 14.6935C14.4322 14.401 14.5562 13.994 14.5562 13.4723C14.5663 13.1031 14.4702 12.7389 14.2795 12.4227C14.079 12.117 13.7892 11.8805 13.4495 11.7453C13.0059 11.5729 12.5321 11.4917 12.0565 11.5068C11.7512 11.5068 11.4809 11.5099 11.2456 11.5163C11.01 11.5229 10.8479 11.5324 10.759 11.5449Z" fill="url(#paint0_linear_367_537)"/>
<path d="M24.5292 14.7985C24.1706 14.6142 23.7887 14.4794 23.3939 14.3978C22.9588 14.2979 22.5141 14.2467 22.0677 14.2451C21.8263 14.2385 21.5852 14.2675 21.3521 14.331C21.2038 14.364 21.072 14.4485 20.98 14.5695C20.9179 14.6663 20.8848 14.7789 20.8847 14.8939C20.8881 15.0055 20.9284 15.1128 20.9991 15.1992C21.1106 15.3296 21.2468 15.4366 21.3998 15.5141C21.6719 15.6606 21.9522 15.7912 22.2394 15.9053C22.8798 16.1197 23.4918 16.4112 24.0617 16.7735C24.45 17.0186 24.7713 17.3563 24.9967 17.7563C25.1863 18.135 25.2812 18.5541 25.2734 18.9776C25.2848 19.5367 25.125 20.0861 24.8155 20.5519C24.484 21.0247 24.0237 21.3923 23.4892 21.6109C22.9103 21.8653 22.1947 21.9925 21.3426 21.9926C20.8013 21.9981 20.2609 21.9469 19.7302 21.8399C19.3121 21.7633 18.9051 21.6351 18.5185 21.4583C18.4768 21.4367 18.4421 21.4038 18.4184 21.3632C18.3948 21.3226 18.3832 21.2762 18.385 21.2293V19.1684C18.3827 19.1482 18.3859 19.1278 18.3943 19.1093C18.4027 19.0908 18.416 19.075 18.4327 19.0634C18.4491 19.0542 18.4679 19.0501 18.4867 19.0518C18.5054 19.0535 18.5232 19.0609 18.5376 19.073C18.9941 19.3422 19.4899 19.5385 20.0069 19.655C20.4626 19.7692 20.9301 19.83 21.3998 19.8363C21.845 19.8363 22.1725 19.779 22.3825 19.6645C22.4774 19.6211 22.5576 19.5511 22.6135 19.4631C22.6693 19.375 22.6985 19.2727 22.6974 19.1684C22.6974 19.0032 22.602 18.8442 22.4112 18.6913C22.2204 18.5387 21.8324 18.3542 21.2472 18.1379C20.648 17.9294 20.0799 17.6405 19.5585 17.2792C19.1855 17.0198 18.8783 16.6767 18.6616 16.2774C18.474 15.9013 18.3791 15.4858 18.385 15.0656C18.3839 14.5607 18.5226 14.0654 18.7857 13.6345C19.0856 13.1599 19.5164 12.7822 20.026 12.5467C20.5856 12.2671 21.2853 12.1271 22.125 12.1269C22.6167 12.123 23.108 12.1581 23.5942 12.2319C23.9463 12.2765 24.2905 12.3697 24.6171 12.5086C24.643 12.516 24.6669 12.5294 24.6867 12.5476C24.7066 12.5658 24.7219 12.5884 24.7316 12.6135C24.7445 12.6601 24.7509 12.7083 24.7507 12.7567V14.684C24.752 14.7064 24.7474 14.7288 24.7374 14.7489C24.7273 14.769 24.7122 14.7861 24.6935 14.7985C24.6679 14.8112 24.6398 14.8178 24.6113 14.8178C24.5828 14.8178 24.5547 14.8112 24.5292 14.7985Z" fill="url(#paint1_linear_367_537)"/>
</g>
</g>
</g>
<defs>
<linearGradient id="paint0_linear_367_537" x1="30.5238" y1="28.4287" x2="-16.2695" y2="10.7266" gradientUnits="userSpaceOnUse">
<stop stop-color="white"/>
<stop offset="1" stop-color="white" stop-opacity="0"/>
</linearGradient>
<linearGradient id="paint1_linear_367_537" x1="30.5238" y1="28.4287" x2="-16.2695" y2="10.7266" gradientUnits="userSpaceOnUse">
<stop stop-color="white"/>
<stop offset="1" stop-color="white" stop-opacity="0"/>
</linearGradient>
</defs>
</svg>
