<svg width="32" height="32" viewBox="0 0 32 32" fill="none" xmlns="http://www.w3.org/2000/svg">
<g id="icon_logo">
<g id="Group 5">
<path id="Vector" d="M3.25245 12.1936C3.25245 12.1936 2.60557 11.7254 3.38281 11.101L5.19244 9.47812C5.19244 9.47812 5.71088 8.93126 6.2586 9.40803L22.9648 22.0866V28.1664C22.9648 28.1664 22.9565 29.1212 21.7345 29.0161L3.25245 12.1936Z" fill="url(#paint0_linear_367_563)"/>
<path id="Vector_2" d="M7.55926 16.1123L3.25251 20.0365C3.25251 20.0365 2.81015 20.3663 3.25251 20.9565L5.25192 22.7788C5.25192 22.7788 5.72676 23.2906 6.42899 22.7087L10.9935 19.2386L7.55926 16.1123Z" fill="url(#paint1_linear_367_563)"/>
<path id="Vector_3" d="M15.1189 16.1446L23.0159 10.1001L22.9648 4.05292C22.9648 4.05292 22.6276 2.73309 21.5024 3.42057L10.9934 13.0075L15.1189 16.1446Z" fill="url(#paint2_linear_367_563)"/>
<path id="Vector_4" d="M21.7346 29.0237C22.1929 29.4945 22.749 29.34 22.749 29.34L28.903 26.3007C29.6909 25.7622 29.5806 25.0944 29.5806 25.0944V6.94141C29.5806 6.14323 28.766 5.86777 28.766 5.86777L23.4318 3.2903C22.2665 2.5682 21.5027 3.42066 21.5027 3.42066C21.5027 3.42066 22.4842 2.71181 22.9651 4.05322V28.0557C22.9651 28.2208 22.93 28.3826 22.8599 28.5288C22.7197 28.8134 22.4141 29.078 21.6837 28.9671L21.7346 29.0237Z" fill="white"/>
</g>
</g>
<defs>
<linearGradient id="paint0_linear_367_563" x1="29.097" y1="38.9888" x2="-28.6776" y2="22.5001" gradientUnits="userSpaceOnUse">
<stop stop-color="white"/>
<stop offset="1" stop-color="white" stop-opacity="0"/>
</linearGradient>
<linearGradient id="paint1_linear_367_563" x1="13.4315" y1="26.4445" x2="-9.00976" y2="19.1063" gradientUnits="userSpaceOnUse">
<stop stop-color="white"/>
<stop offset="1" stop-color="white" stop-opacity="0"/>
</linearGradient>
<linearGradient id="paint2_linear_367_563" x1="26.7086" y1="22.6443" x2="-8.4737" y2="13.3746" gradientUnits="userSpaceOnUse">
<stop stop-color="white"/>
<stop offset="1" stop-color="white" stop-opacity="0"/>
</linearGradient>
</defs>
</svg>
