<svg width="158" height="16" viewBox="0 0 158 16" fill="none" xmlns="http://www.w3.org/2000/svg">
<path fill-rule="evenodd" clip-rule="evenodd" d="M18.6743 0.655762L18.6744 0.655738H16.7843L10.4633 7.28656H2.21029V7.28658H10.4633L16.7844 0.655762H18.6743ZM2.21026 0.655762H0.656278V15.3443H0.656254V0.655738H2.21026V0.655762ZM20.1982 0L12.6266 8L20.1982 16H16.5025L10.1815 9.3482H2.86652V16H0V0H2.86652V6.63082H10.1821L16.5031 0H20.1982ZM30.812 15.3443H30.8119V11.0846L30.812 11.0846V15.3443ZM21.7819 0.655762H23.5249L23.5249 0.655738H21.7819L21.7819 0.655762ZM31.5889 9.84656L39.632 0.655738H41.375L41.375 0.655762H39.632L31.589 9.84658L31.5889 9.84656ZM23.8223 0L31.5883 8.85113L39.3341 0H42.8106L33.0012 11.3289V16H30.1557V11.3289L20.3463 0H23.8223ZM55.6175 0H45.1962V16H48.0627V11.6564H55.6175C56.0299 11.6564 56.4193 11.6439 56.7948 11.6186L60.3445 16H63.7364L59.652 10.9718C60.5796 10.5694 61.3087 9.99748 61.8328 9.26148C62.5151 8.30319 62.8048 7.13064 62.8048 5.83869C62.8048 4.12291 62.2939 2.61979 61.0585 1.56123C59.8419 0.518864 58.0284 0 55.6175 0ZM45.8525 15.3443V0.655738H55.6175C56.783 0.655738 57.774 0.781639 58.6048 1.02C57.774 0.781644 56.783 0.655762 55.6175 0.655762H45.8525L45.8525 15.3443ZM67.1175 0.655738V15.3443L67.1176 0.655762H68.6716L68.6716 0.655738H67.1175ZM68.6716 7.28656L76.9246 7.28658L83.2457 0.655762H85.1357L85.1357 0.655738H83.2456L76.9246 7.28656H68.6716ZM86.6595 0L79.0879 8L86.6595 16H82.9638L76.6428 9.3482H69.3278V16H66.4613V0H69.3278V6.63082H76.6434L82.9644 0H86.6595ZM89.1619 0V16H92.0285V0H89.1619ZM99.6352 0H96.7687V16H112.97V13.2826H99.6352V0ZM98.979 0.655738L98.979 0.655762H97.425L97.425 15.3443V0.655738H98.979ZM115.864 15.3443L124.726 0.655762H126.595L126.595 0.655738H124.726L115.864 15.3443ZM117.89 16L120.158 12.3069H131.163L133.431 16H136.619L126.966 0H124.355L114.702 16H117.89ZM155.154 11.7217L141.373 0H139.278V16H142.145V4.27833L155.926 16H158V0H155.154V11.7217ZM139.935 0.655762H141.132L141.132 0.655738H139.935L139.935 0.655762ZM157.344 0.655738L157.344 0.655762H155.811L155.811 0.655738H157.344ZM55.6175 9.04393H48.0627V2.63344H55.6175C57.3272 2.63344 58.3985 2.99262 59.0352 3.52277C59.6491 4.03394 59.9593 4.78933 59.9593 5.83869C59.9593 6.87617 59.6498 7.6329 59.0342 8.14755C58.3968 8.68037 57.3252 9.04393 55.6175 9.04393ZM129.558 9.67344H121.784L125.671 3.35566L129.558 9.67344ZM89.8182 0.655738V15.3443L89.8182 0.655762H91.3722L91.3722 0.655738H89.8182Z" fill="url(#paint0_linear_811_263)"/>
<defs>
<linearGradient id="paint0_linear_811_263" x1="406.5" y1="8" x2="309.786" y2="-171.487" gradientUnits="userSpaceOnUse">
<stop stop-color="#202020" stop-opacity="0"/>
<stop offset="1" stop-color="#1F1F1F"/>
</linearGradient>
</defs>
</svg>
